<?xml version="1.0" encoding="UTF-8" standalone="no"?>
<!-- Created with Inkscape (http://www.inkscape.org/) -->

<svg
   xmlns:dc="http://purl.org/dc/elements/1.1/"
   xmlns:cc="http://creativecommons.org/ns#"
   xmlns:rdf="http://www.w3.org/1999/02/22-rdf-syntax-ns#"
   xmlns:svg="http://www.w3.org/2000/svg"
   xmlns="http://www.w3.org/2000/svg"
   xmlns:sodipodi="http://sodipodi.sourceforge.net/DTD/sodipodi-0.dtd"
   xmlns:inkscape="http://www.inkscape.org/namespaces/inkscape"
   width="800"
   height="600"
   viewBox="0 0 211.66666 158.75"
   version="1.1"
   id="svg8"
   inkscape:version="0.92.2 (5c3e80d, 2017-08-06)"
   sodipodi:docname="Castle.svg">
  <defs
     id="defs2">
    <inkscape:path-effect
       effect="spiro"
       id="path-effect3727"
       is_visible="true" />
    <inkscape:path-effect
       is_visible="true"
       id="path-effect3717"
       effect="spiro" />
    <inkscape:path-effect
       effect="spiro"
       id="path-effect3701"
       is_visible="true" />
  </defs>
  <sodipodi:namedview
     id="base"
     pagecolor="#ffffff"
     bordercolor="#666666"
     borderopacity="1.0"
     inkscape:pageopacity="0.0"
     inkscape:pageshadow="2"
     inkscape:zoom="0.98994949"
     inkscape:cx="440.94875"
     inkscape:cy="332.52675"
     inkscape:document-units="px"
     inkscape:current-layer="layer1"
     showgrid="false"
     units="px"
     inkscape:snap-global="false"
     inkscape:window-width="1600"
     inkscape:window-height="848"
     inkscape:window-x="-8"
     inkscape:window-y="-8"
     inkscape:window-maximized="1" />
  <metadata
     id="metadata5">
    <rdf:RDF>
      <cc:Work
         rdf:about="">
        <dc:format>image/svg+xml</dc:format>
        <dc:type
           rdf:resource="http://purl.org/dc/dcmitype/StillImage" />
        <dc:title />
      </cc:Work>
    </rdf:RDF>
  </metadata>
  <g
     inkscape:label="Layer 1"
     inkscape:groupmode="layer"
     id="layer1"
     transform="translate(0,-138.24998)">
    <g
       id="g4768"
       inkscape:export-filename="E:\School\CTI-110\Module 5\FP\www\images\castle.png"
       inkscape:export-xdpi="96"
       inkscape:export-ydpi="96">
      <path
         sodipodi:nodetypes="aaaaaaaaaaaaaaa"
         inkscape:connector-curvature="0"
         id="path4642"
         d="m 4.157738,191.16664 c 2.5107559,-2.87065 6.936845,-3.22973 10.583333,-4.34672 7.997455,-2.44978 16.381765,-3.38838 24.568453,-5.10268 11.343191,-2.37528 22.605602,-5.16404 34.017857,-7.18155 4.825122,-0.85301 9.68523,-1.5104 14.552083,-2.07887 8.293382,-0.96871 16.616126,-1.69798 24.946426,-2.26785 5.47365,-0.37445 11.13936,-2.16431 16.44197,-0.75596 2.95591,0.78508 6.47069,2.13504 7.74851,4.9137 2.20729,4.79982 0.53255,11.20626 -2.26786,15.68601 -6.17766,9.88223 -18.16263,15.1598 -28.91518,19.65476 -13.80379,5.77049 -29.161872,7.06361 -44.034223,8.69345 -10.711142,1.17382 -21.674637,2.44334 -32.316965,0.75595 -7.320169,-1.16064 -15.403326,-2.48601 -20.9776779,-7.37053 -3.5598111,-3.11928 -5.9214167,-7.95604 -6.4255951,-12.6622 -0.2913456,-2.71951 0.2782422,-5.87878 2.078869,-7.93751 z"
         style="opacity:1;vector-effect:none;fill:#71c837;fill-opacity:1;stroke:#000000;stroke-width:1.05833328;stroke-linecap:butt;stroke-linejoin:miter;stroke-miterlimit:4;stroke-dasharray:none;stroke-dashoffset:0;stroke-opacity:1" />
      <path
         inkscape:connector-curvature="0"
         id="path4613"
         d="m 32.95193,149.14287 c -0.608832,0.24064 -0.755369,0.94066 -1.064564,1.44942 -0.286827,0.64291 -0.715978,1.24259 -0.848294,1.94249 -0.116276,0.80868 0.851149,1.46492 1.563886,1.079 0.567251,-0.3171 0.670034,-1.02403 0.950592,-1.55821 0.238591,-0.60828 0.554186,-1.19286 0.723144,-1.8251 0.109831,-0.66289 -0.571,-1.30323 -1.22324,-1.10508 -0.03384,0.006 -0.06768,0.0117 -0.101524,0.0175 z"
         style="opacity:1;vector-effect:none;fill:#979797;fill-opacity:1;stroke:none;stroke-width:0.75;stroke-linecap:butt;stroke-linejoin:miter;stroke-miterlimit:4;stroke-dasharray:none;stroke-dashoffset:0;stroke-opacity:1" />
      <path
         inkscape:connector-curvature="0"
         id="path4599"
         d="m 47.520333,157.42629 c -2.503668,0.38889 -5.028978,0.70107 -7.508864,1.21942 -1.087623,0.58394 -0.492575,1.94007 -0.531318,2.90712 0.04968,0.58146 0.09962,1.16301 0.130934,1.74582 -1.146659,0.5858 -2.807263,0.64102 -3.439268,1.92204 -0.223502,0.88 -0.07121,2.23701 0.940403,2.54298 1.574718,-0.1424 3.057496,-0.86452 4.592135,-1.24211 0.879604,-0.0839 1.61267,-0.81382 1.365144,-1.73326 -0.0452,-1.26192 -0.09649,-2.51184 -0.111281,-3.76144 1.774534,-0.37543 3.619079,-0.50979 5.350089,-1.03384 0.853019,-0.70337 0.559776,-2.6931 -0.787974,-2.56673 z"
         style="opacity:1;vector-effect:none;fill:#979797;fill-opacity:1;stroke:none;stroke-width:0.75;stroke-linecap:butt;stroke-linejoin:miter;stroke-miterlimit:4;stroke-dasharray:none;stroke-dashoffset:0;stroke-opacity:1" />
      <path
         inkscape:connector-curvature="0"
         id="path4601"
         d="m 55.581221,155.75507 c -1.292979,0.43434 -2.80761,0.44911 -3.928911,1.28076 -0.714344,0.87866 -0.06211,2.07755 -0.05453,3.07872 0.420294,0.85334 -0.446717,0.92807 -1.065696,1.15335 -0.922999,0.25774 -2.140837,0.87998 -1.838008,2.03989 0.199964,1.01706 1.39936,0.94853 2.162887,0.68053 1.154642,-0.32016 2.451753,-0.339 3.517344,-0.8506 0.803749,-0.7234 0.218427,-1.90946 0.221364,-2.83019 -0.005,-0.51394 -0.442595,-1.35392 0.409779,-1.27606 1.582692,-0.39094 3.201442,-0.65403 4.760216,-1.13145 0.920528,-0.54124 0.651888,-1.84729 0.346353,-2.65991 -0.935233,-0.82191 -2.174534,0.0994 -3.228644,0.19398 -0.434049,0.10699 -0.868098,0.21399 -1.30215,0.32098 z"
         style="opacity:1;vector-effect:none;fill:#979797;fill-opacity:1;stroke:none;stroke-width:0.75;stroke-linecap:butt;stroke-linejoin:miter;stroke-miterlimit:4;stroke-dasharray:none;stroke-dashoffset:0;stroke-opacity:1" />
      <path
         inkscape:connector-curvature="0"
         id="path4605"
         d="m 67.365204,139.71663 c -0.455744,0.20206 -0.722407,0.65969 -0.987279,1.05777 -0.356346,0.59807 0.137845,1.43459 0.826886,1.44595 1.40574,-0.0184 2.814707,-0.0653 4.217731,-0.15641 0.521042,-0.0968 0.846728,-0.58785 0.876274,-1.09449 0.158353,-0.57036 -0.227047,-1.23893 -0.837076,-1.29003 -1.250111,-0.0478 -2.508821,-0.006 -3.762208,-0.0204 -0.111443,0.0192 -0.222885,0.0384 -0.334328,0.0576 z"
         style="opacity:1;vector-effect:none;fill:#979797;fill-opacity:1;stroke:none;stroke-width:0.75;stroke-linecap:butt;stroke-linejoin:miter;stroke-miterlimit:4;stroke-dasharray:none;stroke-dashoffset:0;stroke-opacity:1" />
      <path
         inkscape:connector-curvature="0"
         id="path4607"
         d="m 61.381721,141.85216 c -0.757404,0.23745 -1.475721,0.59494 -2.20355,0.90768 -0.528992,0.26898 -0.634135,0.90921 -0.809109,1.42216 -0.147789,0.63245 0.432675,1.28275 1.077902,1.19658 0.560403,-0.10613 1.011158,-0.51051 1.516361,-0.75915 0.500324,0.68819 0.923851,1.44244 1.492033,2.07568 0.405003,0.36721 1.00887,0.27695 1.433134,-0.007 0.441357,-0.21555 0.968976,-0.49043 1.007383,-1.04367 0.06709,-0.67432 -0.576112,-1.08914 -0.928092,-1.58037 -0.603306,-0.67725 -1.145924,-1.41975 -1.813206,-2.03395 -0.22012,-0.16004 -0.506357,-0.21135 -0.772856,-0.17749 z"
         style="opacity:1;vector-effect:none;fill:#979797;fill-opacity:1;stroke:none;stroke-width:0.75;stroke-linecap:butt;stroke-linejoin:miter;stroke-miterlimit:4;stroke-dasharray:none;stroke-dashoffset:0;stroke-opacity:1" />
      <path
         inkscape:connector-curvature="0"
         id="path4609"
         d="m 76.877269,141.1262 c -0.54347,0.0814 -1.197906,0.2356 -1.378286,0.83263 -0.158083,0.53829 0.188412,1.08419 0.691734,1.27996 0.979999,0.50858 1.931075,1.08077 2.937603,1.5342 0.590669,0.19508 1.203587,-0.23149 1.367129,-0.80228 0.259011,-0.55734 -0.03169,-1.24403 -0.591683,-1.47781 -0.855149,-0.4611 -1.700175,-0.95258 -2.594446,-1.3333 -0.140705,-0.0456 -0.286573,-0.0359 -0.432051,-0.0334 z"
         style="opacity:1;vector-effect:none;fill:#979797;fill-opacity:1;stroke:none;stroke-width:0.75;stroke-linecap:butt;stroke-linejoin:miter;stroke-miterlimit:4;stroke-dasharray:none;stroke-dashoffset:0;stroke-opacity:1" />
      <path
         inkscape:connector-curvature="0"
         id="path4611"
         d="m 30.821016,145.61531 c -0.536038,0.0873 -1.12853,0.18152 -1.545955,0.55709 -0.462558,0.46727 -0.307631,1.31539 0.274992,1.60723 1.266703,0.72756 2.552324,1.43007 3.849071,2.09842 0.549769,0.26104 1.211135,-0.11381 1.377333,-0.67617 0.26157,-0.48391 0.365549,-1.14803 -0.07777,-1.56335 -0.661347,-0.54799 -1.467683,-0.88753 -2.204468,-1.32132 -0.506318,-0.23452 -0.971574,-0.61431 -1.533221,-0.69517 -0.04663,-0.001 -0.09333,-0.009 -0.139983,-0.007 z"
         style="opacity:1;vector-effect:none;fill:#979797;fill-opacity:1;stroke:none;stroke-width:0.75;stroke-linecap:butt;stroke-linejoin:miter;stroke-miterlimit:4;stroke-dasharray:none;stroke-dashoffset:0;stroke-opacity:1" />
      <path
         inkscape:connector-curvature="0"
         id="path4615"
         d="m 21.940514,143.86625 c -0.821711,0.0254 -1.652052,-0.049 -2.468055,0.0425 -0.562456,0.13794 -0.815667,0.72968 -1.167566,1.13728 -0.451676,0.54443 -0.189222,1.47474 0.505137,1.65955 0.662726,0.12014 1.346315,0.003 2.016836,0.0165 0.712594,-0.0207 1.425127,-0.0437 2.137488,-0.0712 -0.0014,0.67756 -0.08016,1.35803 -0.03507,2.03402 0.107332,0.63895 0.901875,1.02711 1.457751,0.68608 0.506738,-0.24148 0.559312,-0.84162 0.573333,-1.33551 0.06162,-1.08015 0.176972,-2.16181 0.199853,-3.2413 -0.01188,-0.60915 -0.647382,-1.01526 -1.220662,-0.9299 -0.666349,6.7e-4 -1.332698,0.001 -1.999048,0.002 z"
         style="opacity:1;vector-effect:none;fill:#979797;fill-opacity:1;stroke:none;stroke-width:0.75;stroke-linecap:butt;stroke-linejoin:miter;stroke-miterlimit:4;stroke-dasharray:none;stroke-dashoffset:0;stroke-opacity:1" />
      <path
         inkscape:connector-curvature="0"
         id="path4617"
         d="m 12.307751,146.47784 c -0.905957,0.2902 -1.756157,0.73698 -2.635406,1.09933 -0.5884939,0.28691 -0.6657065,0.99538 -0.9080016,1.53672 -0.2706962,0.5207 -0.1002302,1.26185 0.4762109,1.48221 0.5839325,0.28177 1.1317757,-0.17943 1.6226557,-0.44332 0.303345,-0.17551 0.603975,-0.35565 0.906829,-0.53199 0.572793,0.79684 1.082491,1.643 1.679492,2.41926 0.363461,0.4437 1.048344,0.39652 1.470556,0.0605 0.498452,-0.31926 1.229452,-0.53446 1.329192,-1.20772 0.137235,-0.63295 -0.435075,-1.07023 -0.775683,-1.51648 -0.774147,-0.89606 -1.520903,-1.81934 -2.340776,-2.67378 -0.230582,-0.18972 -0.53279,-0.25454 -0.825069,-0.2247 z"
         style="opacity:1;vector-effect:none;fill:#979797;fill-opacity:1;stroke:none;stroke-width:0.75;stroke-linecap:butt;stroke-linejoin:miter;stroke-miterlimit:4;stroke-dasharray:none;stroke-dashoffset:0;stroke-opacity:1" />
      <path
         inkscape:connector-curvature="0"
         id="path4619"
         d="m 35.145038,159.34779 c -1.280388,0.35086 -2.502654,0.96373 -3.695536,1.52555 -0.768025,0.56117 -0.494139,1.68477 -0.426784,2.51559 0.235503,0.93569 1.367917,0.94068 2.028537,0.46936 1.060122,-0.54601 2.308299,-0.77591 3.228633,-1.54888 0.301805,-0.75725 0.03601,-1.5975 -0.141986,-2.35922 -0.239953,-0.34561 -0.536998,-0.64628 -0.992864,-0.6024 z"
         style="opacity:1;vector-effect:none;fill:#979797;fill-opacity:1;stroke:none;stroke-width:0.75;stroke-linecap:butt;stroke-linejoin:miter;stroke-miterlimit:4;stroke-dasharray:none;stroke-dashoffset:0;stroke-opacity:1" />
      <path
         style="opacity:1;vector-effect:none;fill:none;fill-opacity:1;stroke:#000000;stroke-width:1.05833328;stroke-linecap:butt;stroke-linejoin:miter;stroke-miterlimit:4;stroke-dasharray:none;stroke-dashoffset:0;stroke-opacity:1"
         d="m 58.390149,145.28358 0.794937,-2.04525 2.543798,-1.10127 3.497723,4.09047 1.589875,-0.6293 -0.635949,-3.93315 1.271899,-1.57326 h 4.451647 l -0.317975,5.03444 1.748862,0.47197 1.907848,-3.6185 1.90785,-0.47197 3.179746,1.73057 -2.384809,5.50642"
         id="path4568"
         inkscape:connector-curvature="0" />
      <path
         inkscape:connector-curvature="0"
         id="path4566"
         d="m 8.6934523,150.53421 0.9449403,-2.45685 3.0238094,-1.32292 4.157738,4.91369 1.889881,-0.75595 -0.755952,-4.7247 1.511905,-1.88988 h 5.291666 l -0.377976,6.04762 2.078869,0.56696 2.267857,-4.34672 2.267858,-0.56697 3.779761,2.07887 -2.83482,6.61458"
         style="opacity:1;vector-effect:none;fill:none;fill-opacity:1;stroke:#000000;stroke-width:1.05833328;stroke-linecap:butt;stroke-linejoin:miter;stroke-miterlimit:4;stroke-dasharray:none;stroke-dashoffset:0;stroke-opacity:1" />
      <path
         sodipodi:nodetypes="ccccccccccccccccccc"
         inkscape:connector-curvature="0"
         id="path4644"
         d="m 81.453869,173.77974 1.322915,4.7247 -21.922618,12.28423 3.023809,6.99256 -21.355653,5.85863 1.700892,5.48065 -11.528274,3.02381 -1.322916,4.72471 -3.96875,1.88988 10.394344,0.75595 18.520833,-0.56696 -9.260417,-2.64584 11.90625,-5.29166 -2.267857,-1.7009 16.630954,-6.80357 -2.078871,-6.80357 21.355656,-15.68601 -1.133929,-7.74851 z"
         style="opacity:1;vector-effect:none;fill:#8dd35f;fill-opacity:1;stroke:#000000;stroke-width:1.05833328;stroke-linecap:butt;stroke-linejoin:miter;stroke-miterlimit:4;stroke-dasharray:none;stroke-dashoffset:0;stroke-opacity:1" />
      <path
         inkscape:connector-curvature="0"
         id="path4648"
         d="m 97.895832,171.70087 2.078868,4.91369 -7.370534,8.12649 2.456844,7.18155 -10.394344,14.1741 4.346725,2.64584 -6.614583,6.80357 9.260417,-1.51191 5.858631,-0.94494 3.023814,-5.29166 -3.40179,-2.45685 9.82738,-13.60714 -4.7247,-6.61458 7.74851,-8.50447 -3.02381,-6.61458 z"
         style="opacity:1;vector-effect:none;fill:#8dd35f;fill-opacity:1;stroke:#000000;stroke-width:1.05833328;stroke-linecap:butt;stroke-linejoin:miter;stroke-miterlimit:4;stroke-dasharray:none;stroke-dashoffset:0;stroke-opacity:1" />
      <path
         sodipodi:nodetypes="aaaaaaaaaaaaaaaaaaaaaaaaaaaaaaaaaaaaaaaaaaaa"
         inkscape:connector-curvature="0"
         id="path4650"
         d="m 43.46726,183.79611 c -0.992434,2.05662 0.943441,4.95704 2.834823,6.23661 1.149085,0.77738 2.771133,0.23423 4.157739,0.18899 1.710449,-0.0558 3.393936,-0.47233 5.102677,-0.56697 1.383792,-0.0766 2.772707,-0.0494 4.157739,0 0.88363,0.0315 1.77173,0.0558 2.645834,0.18899 1.087626,0.16571 2.167775,0.41197 3.212795,0.75595 0.911422,0.3 1.785469,0.70912 2.645834,1.13393 1.036939,0.512 2.02924,1.11079 3.023809,1.70089 0.511111,0.30325 0.981923,0.67603 1.511906,0.94494 0.907584,0.46051 1.860758,0.83901 2.834822,1.13393 1.170678,0.35445 2.377089,0.60398 3.590772,0.75595 1.501491,0.18801 3.022826,0.15748 4.535715,0.18899 1.700525,0.0354 3.401787,0 5.10268,0 h 4.724701 c 1.196925,0 2.394366,-0.0352 3.590774,0 1.072322,0.0315 2.141367,0.13516 3.2128,0.18899 1.51131,0.0759 3.04182,-0.0521 4.53571,0.18899 0.90552,0.14611 1.74788,0.56885 2.64583,0.75595 0.93326,0.19446 1.88823,0.26507 2.83483,0.37798 1.19507,0.14254 2.39126,0.27961 3.59077,0.37797 1.0692,0.0877 2.14541,0.0815 3.2128,0.18899 0.88642,0.0892 1.76772,0.22757 2.64583,0.37798 0.94982,0.1627 1.89464,0.35555 2.83482,0.56696 0.50682,0.11397 0.99512,0.43081 1.51191,0.37798 1.87799,-0.19198 3.59337,-1.32297 5.10268,-2.45685 1.9617,-1.47375 3.5338,-3.45183 4.91369,-5.48065 0.55454,-0.81533 1.25301,-1.66228 1.32291,-2.64584 0.0424,-0.59613 -0.11548,-1.30932 -0.56696,-1.70089 -1.59624,-1.38441 -4.13717,-0.89532 -6.23661,-1.13393 -2.69441,-0.30622 -5.41546,-0.31495 -8.12648,-0.37797 -2.33023,-0.0542 -4.66442,0.11239 -6.99257,0 -1.95971,-0.0946 -3.89891,-0.47236 -5.85862,-0.56696 -2.2023,-0.10632 -4.44208,-0.37632 -6.61459,-10e-6 -1.845526,0.31967 -3.44614,1.57022 -5.291666,1.88989 -1.179363,0.20428 -2.397165,0.089 -3.590774,0 -3.811462,-0.28427 -7.563466,-1.10825 -11.339285,-1.7009 -3.846952,-0.60382 -7.647067,-1.57386 -11.528274,-1.88988 -1.130189,-0.092 -2.274347,-0.12113 -3.401788,0 -1.474265,0.1584 -2.875644,0.75928 -4.346725,0.94494 -1.688664,0.21312 -3.411243,0.37887 -5.102678,0.18899 -0.971857,-0.1091 -2.021027,-0.2136 -2.834822,-0.75595 -0.859771,-0.57299 -0.914123,-2.1171 -1.889879,-2.45685 -2.698248,-0.9395 -7.073766,-0.49433 -8.315479,2.07887 z"
         style="opacity:1;vector-effect:none;fill:#a05a2c;fill-opacity:1;stroke:#000000;stroke-width:1.05833328;stroke-linecap:butt;stroke-linejoin:miter;stroke-miterlimit:4;stroke-dasharray:none;stroke-dashoffset:0;stroke-opacity:1" />
      <path
         style="opacity:1;vector-effect:none;fill:none;fill-opacity:1;stroke:#000000;stroke-width:2.11666656;stroke-linecap:butt;stroke-linejoin:miter;stroke-miterlimit:4;stroke-dasharray:none;stroke-dashoffset:0;stroke-opacity:1"
         d="m 4.157738,191.16664 c 2.5107559,-2.87065 6.936845,-3.22973 10.583333,-4.34672 7.997455,-2.44978 16.381765,-3.38838 24.568453,-5.10268 11.343191,-2.37528 22.605602,-5.16404 34.017857,-7.18155 4.825122,-0.85301 9.68523,-1.5104 14.552083,-2.07887 8.293382,-0.96871 16.616126,-1.69798 24.946426,-2.26785 5.47365,-0.37445 11.13936,-2.16431 16.44197,-0.75596 2.95591,0.78508 6.47069,2.13504 7.74851,4.9137 2.20729,4.79982 0.53255,11.20626 -2.26786,15.68601 -6.17766,9.88223 -18.16263,15.1598 -28.91518,19.65476 -13.80379,5.77049 -29.161872,7.06361 -44.034223,8.69345 -10.711142,1.17382 -21.674637,2.44334 -32.316965,0.75595 -7.320169,-1.16064 -15.403326,-2.48601 -20.9776779,-7.37053 -3.5598111,-3.11928 -5.9214167,-7.95604 -6.4255951,-12.6622 -0.2913456,-2.71951 0.2782422,-5.87878 2.078869,-7.93751 z"
         id="path4646"
         inkscape:connector-curvature="0"
         sodipodi:nodetypes="aaaaaaaaaaaaaaa" />
      <path
         inkscape:connector-curvature="0"
         id="path3713"
         d="m 30.735995,168.17607 0.53454,-4.00905 5.078121,-2.13815 0.267269,5.61266 6.1472,-1.87089 -0.267272,-5.07812 6.1472,-1.06908 0.53454,4.27631 5.34539,-1.06907 -0.53454,-4.00905 6.147199,-1.33634 0.534541,5.34539 1.128923,17.18567 -9.071428,2.45684 -7.748512,1.88988 -15.119047,3.96875 z"
         style="opacity:1;vector-effect:none;fill:#cccccc;fill-opacity:1;stroke:#000000;stroke-width:1.05833328;stroke-linecap:butt;stroke-linejoin:miter;stroke-miterlimit:4;stroke-dasharray:none;stroke-dashoffset:0;stroke-opacity:1" />
      <path
         inkscape:original-d="m 43.297662,183.6777 c 0,0 -1.185868,-5.71512 -0.801809,-8.55262 0.370626,-2.73825 0.756117,-6.05783 2.939965,-7.75082 0.956386,-0.74142 2.528966,-0.94841 3.60814,-0.40091 2.473494,1.2549 3.42811,4.5363 4.142678,7.21628 0.677091,2.53944 0,7.88445 0,7.88445 0,0 -3.391937,1.61821 -5.078121,1.87089 -1.686184,0.25268 -4.810853,-0.26727 -4.810853,-0.26727 z"
         inkscape:path-effect="#path-effect3727"
         sodipodi:nodetypes="caaaaczc"
         inkscape:connector-curvature="0"
         id="path3725"
         d="m 43.297662,183.6777 c -0.499477,-2.82271 -0.767935,-5.68626 -0.801809,-8.55262 -0.01714,-1.44999 0.02879,-2.92118 0.44582,-4.31001 0.417035,-1.38883 1.245741,-2.70308 2.494145,-3.44081 1.074127,-0.63475 2.423795,-0.79331 3.60814,-0.40091 0.697313,0.23103 1.329224,0.64228 1.852255,1.15809 0.523031,0.51581 0.939222,1.13443 1.257628,1.79643 0.63681,1.32399 0.880761,2.80047 1.032795,4.26176 0.272455,2.61873 0.272455,5.26572 0,7.88445 -1.531368,0.97994 -3.277018,1.62308 -5.078121,1.87089 -1.600942,0.22027 -3.244162,0.12898 -4.810853,-0.26727 z"
         style="opacity:1;vector-effect:none;fill:#afdde9;fill-opacity:1;stroke:#000000;stroke-width:1.05833328;stroke-linecap:butt;stroke-linejoin:miter;stroke-miterlimit:4;stroke-dasharray:none;stroke-dashoffset:0;stroke-opacity:1" />
      <path
         inkscape:connector-curvature="0"
         id="path4638"
         d="m 47.355392,167.14663 c -0.475049,0.0764 -1.357001,-0.0141 -1.416476,0.58073 1.168643,0.83406 2.622412,1.43064 3.342825,2.77272 1.769856,3.07056 1.669081,6.78773 1.676447,10.19992 0.09801,0.66042 -0.35715,1.44673 0.0209,2.02428 0.611867,0.0908 1.231659,-0.4435 1.63477,-0.86974 0.579779,-1.89577 0.391792,-3.9378 0.37115,-5.89689 -0.170868,-2.70418 -0.408033,-5.79996 -2.513222,-7.76361 -0.849701,-0.78261 -1.978088,-1.09542 -3.116405,-1.04741 z"
         style="opacity:1;vector-effect:none;fill:#808080;fill-opacity:1;stroke:none;stroke-width:0.75;stroke-linecap:butt;stroke-linejoin:miter;stroke-miterlimit:4;stroke-dasharray:none;stroke-dashoffset:0;stroke-opacity:1" />
      <path
         id="path4570"
         d="m 70.791027,141.66528 -5.087546,0.15709 0.476975,3.4215 c -1.138182,0.33836 -2.227059,0.83923 -3.228226,1.47898 l -1.85932,-2.69803 -2.702676,1.57355 1.272272,4.68808 1.607138,29.25868 c 2.915758,1.72496 6.522164,2.24198 9.805088,1.4056 2.081217,-0.53022 4.025868,-1.5872 5.602758,-3.04529 l 1.400947,-29.98525 c -0.242752,-0.21676 -0.497271,-0.41935 -0.756544,-0.61547 l 1.577682,-3.12229 -3.815787,-2.04535 -1.561145,3.20859 c -0.926137,-0.2947 -1.884579,-0.4867 -2.852539,-0.56586 z"
         style="opacity:1;vector-effect:none;fill:#cccccc;fill-opacity:1;stroke:#000000;stroke-width:1.05833328;stroke-linecap:butt;stroke-linejoin:miter;stroke-miterlimit:4;stroke-dasharray:none;stroke-dashoffset:0;stroke-opacity:1"
         inkscape:connector-curvature="0" />
      <path
         inkscape:connector-curvature="0"
         id="path4564"
         d="m 23.434745,146.18748 -6.047692,0.18914 0.532267,3.85867 c -1.379684,0.43841 -2.691954,1.08674 -3.884001,1.90945 l -2.129069,-3.12229 -3.2127238,1.88981 2.0438028,5.28081 1.824178,33.0972 c 3.340485,1.96918 7.467436,2.55859 11.225672,1.60352 2.381015,-0.60508 4.606502,-1.81046 6.414077,-3.4742 l 1.604037,-34.21083 c -0.167654,-0.14907 -0.340583,-0.29147 -0.515213,-0.43202 l 1.782837,-3.56567 -4.535641,-2.4567 -1.727544,3.58841 c -1.135136,-0.37976 -2.31495,-0.62451 -3.507278,-0.71985 z"
         style="opacity:1;vector-effect:none;fill:#cccccc;fill-opacity:1;stroke:#000000;stroke-width:1.05833328;stroke-linecap:butt;stroke-linejoin:miter;stroke-miterlimit:4;stroke-dasharray:none;stroke-dashoffset:0;stroke-opacity:1" />
      <path
         sodipodi:nodetypes="caaaacac"
         inkscape:connector-curvature="0"
         id="path3703"
         d="m 13.49711,164.16702 c 0,0 -0.686861,-3.61141 -0.267269,-5.34539 0.230011,-0.95053 0.648135,-2.00899 1.469982,-2.53906 0.752416,-0.48529 1.856202,-0.63466 2.672695,-0.26727 0.901957,0.40585 1.397946,1.47639 1.737252,2.40543 0.612979,1.67837 0.400904,5.34539 0.400904,5.34539 0,0 -1.667455,0.58927 -2.53906,0.66817 -1.156859,0.10472 -3.474504,-0.26727 -3.474504,-0.26727 z"
         style="opacity:1;vector-effect:none;fill:#333333;fill-opacity:1;stroke:#000000;stroke-width:1.05833328;stroke-linecap:butt;stroke-linejoin:miter;stroke-miterlimit:4;stroke-dasharray:none;stroke-dashoffset:0;stroke-opacity:1" />
      <path
         sodipodi:nodetypes="caaaacac"
         inkscape:connector-curvature="0"
         id="path3709"
         d="m 24.856066,163.09795 c 0,0 -0.565974,-3.82944 0,-5.61266 0.280408,-0.88349 0.75571,-1.89731 1.603617,-2.27179 0.657039,-0.29018 1.562627,-0.16246 2.138156,0.26727 0.623347,0.46544 0.753865,1.3817 0.935445,2.13815 0.354118,1.47524 0.267269,4.54358 0.267269,4.54358 0,0 -1.634217,0.91235 -2.539061,1.06908 -0.791262,0.13706 -2.405426,-0.13363 -2.405426,-0.13363 z"
         style="opacity:1;vector-effect:none;fill:#4d4d4d;fill-opacity:1;stroke:#000000;stroke-width:1.05833328;stroke-linecap:butt;stroke-linejoin:miter;stroke-miterlimit:4;stroke-dasharray:none;stroke-dashoffset:0;stroke-opacity:1" />
      <path
         style="opacity:1;vector-effect:none;fill:#333333;fill-opacity:1;stroke:#000000;stroke-width:1.05833328;stroke-linecap:butt;stroke-linejoin:miter;stroke-miterlimit:4;stroke-dasharray:none;stroke-dashoffset:0;stroke-opacity:1"
         d="m 62.086755,157.52496 c 0,0 -0.599957,-3.16536 -0.233454,-4.68517 0.20091,-0.83313 0.566131,-1.76086 1.283994,-2.22546 0.657218,-0.42535 1.621348,-0.55627 2.334535,-0.23426 0.787838,0.35572 1.221072,1.29404 1.517448,2.10833 0.535422,1.47108 0.35018,4.68518 0.35018,4.68518 0,0 -1.456482,0.51649 -2.217808,0.58564 -1.010488,0.0918 -3.034895,-0.23426 -3.034895,-0.23426 z"
         id="path3719"
         inkscape:connector-curvature="0"
         sodipodi:nodetypes="caaaacac" />
      <path
         inkscape:connector-curvature="0"
         id="path4627"
         d="m 63.919057,150.66231 c -0.08034,0.66788 0.825129,1.02622 1.116057,1.61484 0.713727,1.07358 0.648375,2.46084 0.843571,3.68592 0.03348,0.40347 -0.132847,1.35905 0.572646,1.1834 0.879837,-0.26963 0.560231,-1.42759 0.612579,-2.11937 -0.144391,-1.45231 -0.324128,-3.12574 -1.438661,-4.18104 -0.489029,-0.30783 -1.178057,-0.36667 -1.706192,-0.18375 z"
         style="opacity:1;vector-effect:none;fill:#808080;fill-opacity:1;stroke:none;stroke-width:0.75;stroke-linecap:butt;stroke-linejoin:miter;stroke-miterlimit:4;stroke-dasharray:none;stroke-dashoffset:0;stroke-opacity:1" />
      <path
         style="opacity:1;vector-effect:none;fill:#4d4d4d;fill-opacity:1;stroke:#000000;stroke-width:1.05833328;stroke-linecap:butt;stroke-linejoin:miter;stroke-miterlimit:4;stroke-dasharray:none;stroke-dashoffset:0;stroke-opacity:1"
         d="m 72.008529,156.58794 c 0,0 -0.494364,-3.35647 0,-4.91944 0.24493,-0.77437 0.660095,-1.66297 1.400721,-1.9912 0.573908,-0.25434 1.364917,-0.14239 1.867628,0.23426 0.544479,0.40795 0.658483,1.21105 0.817089,1.87407 0.309313,1.29303 0.233453,3.98239 0.233453,3.98239 0,0 -1.427449,0.79967 -2.217809,0.93704 -0.691148,0.12013 -2.101082,-0.11712 -2.101082,-0.11712 z"
         id="path3721"
         inkscape:connector-curvature="0"
         sodipodi:nodetypes="caaaacac" />
      <path
         inkscape:connector-curvature="0"
         id="path3723"
         d="m 60.098214,155.06992 -8.504465,2.07887 0.566965,3.96875 -3.212798,1.13393 -0.755952,-4.53572 -8.504464,1.32292 0.377975,4.53571 -3.590774,1.32292 -0.755951,-5.48065 -4.346726,1.88988"
         style="opacity:1;vector-effect:none;fill:none;fill-opacity:1;stroke:#000000;stroke-width:1.05833328;stroke-linecap:butt;stroke-linejoin:miter;stroke-miterlimit:4;stroke-dasharray:none;stroke-dashoffset:0;stroke-opacity:1" />
      <path
         sodipodi:nodetypes="caac"
         inkscape:connector-curvature="0"
         id="path3739"
         d="m 45.168155,167.54314 c 0,0 2.92949,1.21784 3.779761,2.45684 1.894571,2.76073 1.951808,6.48151 2.078868,9.82738 0.03618,0.95262 -0.377975,2.83482 -0.377975,2.83482"
         style="opacity:1;vector-effect:none;fill:none;fill-opacity:1;stroke:#000000;stroke-width:0.5;stroke-linecap:butt;stroke-linejoin:miter;stroke-miterlimit:4;stroke-dasharray:none;stroke-dashoffset:0;stroke-opacity:1" />
      <g
         transform="translate(-37.417733,-16.57071)"
         id="g4636">
        <path
           style="opacity:1;vector-effect:none;fill:none;fill-opacity:1;stroke:#000000;stroke-width:1.05833328;stroke-linecap:butt;stroke-linejoin:miter;stroke-miterlimit:4;stroke-dasharray:none;stroke-dashoffset:0;stroke-opacity:1"
           d="m 82.185378,184.61314 0.400904,10.02261"
           id="path3729"
           inkscape:connector-curvature="0" />
        <path
           style="opacity:1;vector-effect:none;fill:none;fill-opacity:1;stroke:#000000;stroke-width:1.05833328;stroke-linecap:butt;stroke-linejoin:miter;stroke-miterlimit:4;stroke-dasharray:none;stroke-dashoffset:0;stroke-opacity:1"
           d="m 84.991709,183.41043 0.534538,10.42352"
           id="path3731"
           inkscape:connector-curvature="0" />
        <path
           style="opacity:1;vector-effect:none;fill:none;fill-opacity:1;stroke:#000000;stroke-width:1.05833328;stroke-linecap:butt;stroke-linejoin:miter;stroke-miterlimit:4;stroke-dasharray:none;stroke-dashoffset:0;stroke-opacity:1"
           d="m 88.065308,184.61314 0.267269,8.95353"
           id="path3733"
           inkscape:connector-curvature="0" />
        <path
           style="opacity:1;vector-effect:none;fill:none;fill-opacity:1;stroke:#000000;stroke-width:1.05833328;stroke-linecap:butt;stroke-linejoin:miter;stroke-miterlimit:4;stroke-dasharray:none;stroke-dashoffset:0;stroke-opacity:1"
           d="m 80.314492,192.76486 10.69078,-1.06907"
           id="path3735"
           inkscape:connector-curvature="0" />
        <path
           style="opacity:1;vector-effect:none;fill:none;fill-opacity:1;stroke:#000000;stroke-width:1.05833328;stroke-linecap:butt;stroke-linejoin:miter;stroke-miterlimit:4;stroke-dasharray:none;stroke-dashoffset:0;stroke-opacity:1"
           d="m 80.180856,189.29036 10.02261,-1.33635"
           id="path3737"
           inkscape:connector-curvature="0" />
      </g>
      <path
         inkscape:connector-curvature="0"
         id="path4629"
         d="m 73.576256,149.90435 c -0.696727,0.38807 0.43811,0.79643 0.588565,1.24056 0.667711,1.40652 0.586669,3.01313 0.756656,4.52401 0.39238,0.56188 1.236112,-0.1516 1.117626,-0.71203 -0.0483,-1.53132 -0.06916,-3.17118 -0.761613,-4.56838 -0.366657,-0.57095 -1.119056,-0.48335 -1.701234,-0.48416 z"
         style="opacity:1;vector-effect:none;fill:#808080;fill-opacity:1;stroke:none;stroke-width:0.75;stroke-linecap:butt;stroke-linejoin:miter;stroke-miterlimit:4;stroke-dasharray:none;stroke-dashoffset:0;stroke-opacity:1" />
      <path
         sodipodi:nodetypes="cac"
         inkscape:connector-curvature="0"
         id="path4546"
         d="m 72.964581,150.26901 c 0,0 0.836507,0.31816 1.069079,0.66817 0.924064,1.39068 0.801806,4.94449 0.801806,4.94449"
         style="opacity:1;vector-effect:none;fill:none;fill-opacity:1;stroke:#000000;stroke-width:0.5;stroke-linecap:butt;stroke-linejoin:miter;stroke-miterlimit:4;stroke-dasharray:none;stroke-dashoffset:0;stroke-opacity:1" />
      <path
         sodipodi:nodetypes="cac"
         inkscape:connector-curvature="0"
         id="path4548"
         d="m 63.342876,150.53628 c 0,0 1.479416,1.17862 1.870888,2.00452 0.712347,1.50287 0.668173,4.94449 0.668173,4.94449"
         style="opacity:1;vector-effect:none;fill:none;fill-opacity:1;stroke:#000000;stroke-width:0.5;stroke-linecap:butt;stroke-linejoin:miter;stroke-miterlimit:4;stroke-dasharray:none;stroke-dashoffset:0;stroke-opacity:1" />
      <path
         inkscape:connector-curvature="0"
         id="path4625"
         d="m 27.106332,155.38337 c -0.495917,-0.13236 -0.848688,0.51584 -0.347657,0.76971 1.292767,0.85273 1.402043,2.58738 1.617189,3.97355 0.167478,0.66163 -0.120627,1.55028 0.389157,2.06585 0.727495,0.16003 0.859501,-0.77076 0.750885,-1.29133 -0.128262,-1.63581 -0.09328,-3.40305 -0.858158,-4.89188 -0.36522,-0.45876 -0.981633,-0.64996 -1.551416,-0.6259 z"
         style="opacity:1;vector-effect:none;fill:#808080;fill-opacity:1;stroke:none;stroke-width:0.75;stroke-linecap:butt;stroke-linejoin:miter;stroke-miterlimit:4;stroke-dasharray:none;stroke-dashoffset:0;stroke-opacity:1" />
      <path
         sodipodi:nodetypes="cac"
         inkscape:connector-curvature="0"
         id="path4550"
         d="m 25.52424,155.6144 c 0,0 1.458286,0.48115 1.870887,1.06908 1.194734,1.70243 1.069078,6.1472 1.069078,6.1472"
         style="opacity:1;vector-effect:none;fill:none;fill-opacity:1;stroke:#000000;stroke-width:0.5;stroke-linecap:butt;stroke-linejoin:miter;stroke-miterlimit:4;stroke-dasharray:none;stroke-dashoffset:0;stroke-opacity:1" />
      <path
         inkscape:connector-curvature="0"
         id="path4623"
         d="m 15.958009,156.27497 c -0.07663,0.66306 0.800285,1.05307 1.085783,1.63911 0.994941,1.67697 0.69431,3.75793 1.158342,5.58761 0.256798,0.49828 1.140935,0.12282 1.014006,-0.42675 0.0388,-2.17495 0.07321,-4.69607 -1.479379,-6.41055 -0.449916,-0.4652 -1.187033,-0.61762 -1.778752,-0.38942 z"
         style="opacity:1;vector-effect:none;fill:#808080;fill-opacity:1;stroke:none;stroke-width:0.75;stroke-linecap:butt;stroke-linejoin:miter;stroke-miterlimit:4;stroke-dasharray:none;stroke-dashoffset:0;stroke-opacity:1" />
      <path
         sodipodi:nodetypes="cac"
         inkscape:connector-curvature="0"
         id="path4552"
         d="m 15.234363,156.0153 c 0,0 1.581285,1.35485 2.004521,2.27179 0.792022,1.71591 0.801809,5.61266 0.801809,5.61266"
         style="opacity:1;vector-effect:none;fill:none;fill-opacity:1;stroke:#000000;stroke-width:0.5;stroke-linecap:butt;stroke-linejoin:miter;stroke-miterlimit:4;stroke-dasharray:none;stroke-dashoffset:0;stroke-opacity:1" />
      <path
         inkscape:connector-curvature="0"
         id="path4554"
         d="m 36.749559,172.05147 v 4.00905 l -4.009043,1.06908 0.133635,-4.54359 z"
         style="opacity:1;vector-effect:none;fill:#979797;fill-opacity:1;stroke:#000000;stroke-width:0.75;stroke-linecap:butt;stroke-linejoin:miter;stroke-miterlimit:4;stroke-dasharray:none;stroke-dashoffset:0;stroke-opacity:1" />
      <path
         inkscape:connector-curvature="0"
         id="path4556"
         d="m 39.288619,172.85328 -3.741772,0.93545 0.668174,4.14267 4.276312,-1.06907 z"
         style="opacity:1;vector-effect:none;fill:#979797;fill-opacity:1;stroke:#000000;stroke-width:0.75;stroke-linecap:butt;stroke-linejoin:miter;stroke-miterlimit:4;stroke-dasharray:none;stroke-dashoffset:0;stroke-opacity:1" />
      <path
         inkscape:connector-curvature="0"
         id="path4558"
         d="m 37.284099,176.99596 1.069078,4.00904 -3.87541,0.80181 -0.668174,-3.60814 z"
         style="opacity:1;vector-effect:none;fill:#979797;fill-opacity:1;stroke:#000000;stroke-width:0.75;stroke-linecap:butt;stroke-linejoin:miter;stroke-miterlimit:4;stroke-dasharray:none;stroke-dashoffset:0;stroke-opacity:1" />
      <path
         sodipodi:nodetypes="ccaccac"
         inkscape:connector-curvature="0"
         id="path4560"
         d="m 15.584243,177.85638 -0.133635,2.80634 c 0,0 1.945156,0.48474 2.939965,0.53453 1.115784,0.0558 3.34087,-0.26727 3.34087,-0.26727 v -3.34087 c 0,0 -2.12416,0.49419 -3.207234,0.53455 -0.983348,0.0366 -2.939966,-0.26728 -2.939966,-0.26728 z"
         style="opacity:1;vector-effect:none;fill:#979797;fill-opacity:1;stroke:#000000;stroke-width:0.75;stroke-linecap:butt;stroke-linejoin:miter;stroke-miterlimit:4;stroke-dasharray:none;stroke-dashoffset:0;stroke-opacity:1" />
      <path
         sodipodi:nodetypes="ccaccac"
         inkscape:connector-curvature="0"
         id="path4562"
         d="m 19.326015,179.99454 -0.133633,3.20723 c 0,0 2.684547,0.31673 4.009041,0.13364 1.018712,-0.14082 2.939965,-0.93544 2.939965,-0.93544 L 25.60685,179.0591 c 0,0 -1.936068,0.64689 -2.939965,0.80181 -1.101475,0.16998 -3.34087,0.13363 -3.34087,0.13363 z"
         style="opacity:1;vector-effect:none;fill:#979797;fill-opacity:1;stroke:#000000;stroke-width:0.75;stroke-linecap:butt;stroke-linejoin:miter;stroke-miterlimit:4;stroke-dasharray:none;stroke-dashoffset:0;stroke-opacity:1" />
      <path
         style="opacity:1;vector-effect:none;fill:#979797;fill-opacity:1;stroke:#000000;stroke-width:0.75;stroke-linecap:butt;stroke-linejoin:miter;stroke-miterlimit:4;stroke-dasharray:none;stroke-dashoffset:0;stroke-opacity:1"
         d="m 65.099124,161.6034 -0.133635,2.80634 c 0,0 1.945156,0.48474 2.939965,0.53453 1.115784,0.0558 3.34087,-0.26727 3.34087,-0.26727 v -3.34087 c 0,0 -2.12416,0.49419 -3.207234,0.53455 -0.983348,0.0366 -2.939966,-0.26728 -2.939966,-0.26728 z"
         id="path4585"
         inkscape:connector-curvature="0"
         sodipodi:nodetypes="ccaccac" />
      <path
         style="opacity:1;vector-effect:none;fill:#979797;fill-opacity:1;stroke:#000000;stroke-width:0.75;stroke-linecap:butt;stroke-linejoin:miter;stroke-miterlimit:4;stroke-dasharray:none;stroke-dashoffset:0;stroke-opacity:1"
         d="m 68.840896,163.74156 -0.133633,3.20723 c 0,0 2.684547,0.31673 4.009041,0.13364 1.018712,-0.14082 2.939965,-0.93544 2.939965,-0.93544 l -0.534538,-3.34087 c 0,0 -1.936068,0.64689 -2.939965,0.80181 -1.101475,0.16998 -3.34087,0.13363 -3.34087,0.13363 z"
         id="path4587"
         inkscape:connector-curvature="0"
         sodipodi:nodetypes="ccaccac" />
      <path
         inkscape:connector-curvature="0"
         id="path4589"
         d="m 29.860118,185.68599 3.590774,-1.13393 0.377976,0.94494 2.645833,-0.75595 v -1.32291 l 2.834823,-0.56697 0.377976,1.32292 2.456844,-0.56697 -0.377976,-1.88988 1.13393,-0.18899 1.133928,3.11831 -14.174107,3.87425 z"
         style="opacity:1;vector-effect:none;fill:#979797;fill-opacity:1;stroke:#000000;stroke-width:1.05833328;stroke-linecap:butt;stroke-linejoin:miter;stroke-miterlimit:4;stroke-dasharray:none;stroke-dashoffset:0;stroke-opacity:1" />
      <path
         inkscape:connector-curvature="0"
         id="path4591"
         d="m 53.294642,180.01635 2.267857,-0.75595 0.377976,1.88988 2.267858,-0.75596 -0.566965,-2.07886 3.590774,-0.56697 0.09449,2.26786 -8.40997,2.45684 z"
         style="opacity:1;vector-effect:none;fill:#979797;fill-opacity:1;stroke:#000000;stroke-width:1.05833328;stroke-linecap:butt;stroke-linejoin:miter;stroke-miterlimit:4;stroke-dasharray:none;stroke-dashoffset:0;stroke-opacity:1" />
      <path
         inkscape:connector-curvature="0"
         id="path4593"
         d="m 55.940475,164.70831 0.377976,3.77976 3.212798,-0.18898 -0.188989,-4.53572 z"
         style="opacity:1;vector-effect:none;fill:#979797;fill-opacity:1;stroke:#000000;stroke-width:0.75;stroke-linecap:butt;stroke-linejoin:miter;stroke-miterlimit:4;stroke-dasharray:none;stroke-dashoffset:0;stroke-opacity:1" />
      <path
         inkscape:connector-curvature="0"
         id="path4595"
         d="m 53.672618,166.97617 3.212798,-0.18899 v 3.59078 l -3.023809,0.56696 z"
         style="opacity:1;vector-effect:none;fill:#979797;fill-opacity:1;stroke:#000000;stroke-width:0.75;stroke-linecap:butt;stroke-linejoin:miter;stroke-miterlimit:4;stroke-dasharray:none;stroke-dashoffset:0;stroke-opacity:1" />
    </g>
  </g>
</svg>
